<?xml version="1.0" encoding="utf-8"?>
<!-- Generator: Adobe Illustrator 16.0.3, SVG Export Plug-In . SVG Version: 6.00 Build 0)  -->
<!DOCTYPE svg PUBLIC "-//W3C//DTD SVG 1.0//EN" "http://www.w3.org/TR/2001/REC-SVG-20010904/DTD/svg10.dtd">
<svg version="1.0"
	 id="svg3269" xmlns:dc="http://purl.org/dc/elements/1.1/" xmlns:cc="http://creativecommons.org/ns#" xmlns:rdf="http://www.w3.org/1999/02/22-rdf-syntax-ns#" xmlns:svg="http://www.w3.org/2000/svg" xmlns:sodipodi="http://sodipodi.sourceforge.net/DTD/sodipodi-0.dtd" xmlns:inkscape="http://www.inkscape.org/namespaces/inkscape" sodipodi:docname="Nouveau document 3" inkscape:version="0.48.5 r10040"
	 xmlns="http://www.w3.org/2000/svg" xmlns:xlink="http://www.w3.org/1999/xlink" x="0px" y="0px" width="24.457px"
	 height="22.678px" viewBox="0 0 24.457 22.678" enable-background="new 0 0 24.457 22.678" xml:space="preserve">
<sodipodi:namedview  fit-margin-left="0" fit-margin-top="0" showgrid="false" inkscape:cy="9.1295973" inkscape:cx="-48.278775" inkscape:zoom="0.35" borderopacity="1.0" bordercolor="#666666" pagecolor="#ffffff" id="base" inkscape:window-y="-8" inkscape:window-x="-8" inkscape:window-height="1018" inkscape:window-width="1920" fit-margin-right="0" fit-margin-bottom="0" inkscape:pageshadow="2" inkscape:window-maximized="1" inkscape:document-units="px" inkscape:pageopacity="0.0" inkscape:current-layer="layer1">
	</sodipodi:namedview>
<g>
	<g id="layer1" transform="translate(-423.27878,-523.23258)" inkscape:label="Calque 1" inkscape:groupmode="layer">
		<g id="g6097" transform="matrix(0.99576087,0,0,1.0005996,381.84801,492.52733)">
			
				<path id="path6021" sodipodi:type="arc" sodipodi:cx="46.607143" sodipodi:cy="32.774395" sodipodi:rx="3.5714285" sodipodi:ry="3.5714285" fill="#FFFFFF" d="
				M49.959,42.938c0,2.296-1.861,4.157-4.157,4.157c-2.294,0-4.155-1.861-4.155-4.157c0-2.294,1.861-4.157,4.155-4.157
				C48.098,38.781,49.959,40.643,49.959,42.938z"/>
			
				<path id="path6021-8" sodipodi:type="arc" sodipodi:cx="46.607143" sodipodi:cy="32.774395" sodipodi:rx="3.5714285" sodipodi:ry="3.5714285" fill="#FFFFFF" d="
				M63.854,50.441c0,1.606-1.301,2.908-2.908,2.908c-1.607,0-2.911-1.302-2.911-2.908c0-1.607,1.302-2.908,2.911-2.908
				C62.553,47.533,63.854,48.833,63.854,50.441z"/>
			
				<path id="path6021-8-6" sodipodi:type="arc" sodipodi:cx="46.607143" sodipodi:cy="32.774395" sodipodi:rx="3.5714285" sodipodi:ry="3.5714285" fill="#FFFFFF" d="
				M62.843,35.665c0,1.665-1.349,3.013-3.015,3.013c-1.663,0-3.013-1.348-3.013-3.013c0-1.664,1.348-3.012,3.013-3.012
				C61.494,32.652,62.843,34.002,62.843,35.665z"/>
		</g>
	</g>
	<path fill="#FFFFFF" d="M5.02,6.533c0,0,0.073-0.233,0.2-0.645c0.124-0.404,0.323-1.008,0.588-1.702
		c0.263-0.698,0.61-1.503,1.095-2.319c0.245-0.404,0.528-0.814,0.901-1.173c0.363-0.354,0.854-0.676,1.427-0.692
		c0.578-0.026,1.067,0.295,1.431,0.628c0.372,0.346,0.656,0.745,0.901,1.141c0.483,0.801,0.802,1.607,1.043,2.305
		c0.478,1.4,0.618,2.375,0.618,2.375s-0.193-0.968-0.737-2.331c-0.275-0.679-0.634-1.458-1.142-2.209
		c-0.254-0.369-0.547-0.737-0.9-1.031C10.096,0.591,9.671,0.36,9.25,0.408c-0.419,0.035-0.8,0.297-1.103,0.627
		c-0.309,0.326-0.552,0.719-0.761,1.11c-0.415,0.787-0.712,1.581-0.93,2.271C6.018,5.786,5.803,6.755,5.804,6.755L5.02,6.533z"/>
	<path fill="#FFFFFF" d="M14.267,9.405c0,0-0.159,0.266-0.387,0.745c-0.09,0.249-0.229,0.528-0.324,0.887
		c-0.115,0.35-0.217,0.752-0.318,1.193c-0.198,0.887-0.366,1.936-0.572,3.064c-0.208,1.13-0.419,2.346-0.834,3.554
		c-0.196,0.604-0.466,1.209-0.858,1.769c-0.396,0.543-0.976,1.061-1.649,1.249c-0.248,0.077-0.827,0.143-1.115,0.047
		c-0.358-0.045-0.659-0.198-0.926-0.354c-0.544-0.313-0.903-0.729-1.215-1.105c-0.308-0.383-0.521-0.771-0.706-1.107
		C5.176,19.009,5.044,18.7,4.95,18.443c-0.203-0.512-0.267-0.821-0.267-0.821l0.106-0.05c0,0,0.188,0.242,0.514,0.666
		c0.342,0.405,0.801,1.009,1.446,1.582c0.321,0.273,0.675,0.576,1.067,0.748c0.195,0.078,0.392,0.17,0.584,0.181
		c0.101,0.021,0.194,0.027,0.259,0.012c0.075-0.011,0.127,0.022,0.287-0.047c0.449-0.095,0.806-0.398,1.162-0.772
		c0.336-0.396,0.625-0.893,0.853-1.43c0.46-1.075,0.759-2.256,1.043-3.36c0.275-1.108,0.551-2.149,0.839-3.027
		c0.146-0.44,0.289-0.84,0.439-1.188c0.131-0.351,0.311-0.642,0.426-0.884c0.275-0.46,0.456-0.706,0.456-0.706L14.267,9.405z"/>
	<path fill="#FFFFFF" d="M22.189,7.049c2.709,3.443,2.957,7.493,0.682,11.239l-0.084-0.037c1.336-3.771,1.141-7.677-0.668-11.145
		L22.189,7.049z"/>
	<path fill="#FFFFFF" d="M14.916,13.495c0.245,1.109,0.645,2.158,1.196,3.146c0.203,0.284,0.338,0.455,0.338,0.455l-0.655,0.483
		c0,0-0.138-0.258-0.301-0.639C15.128,15.824,14.937,14.674,14.916,13.495z"/>
</g>
</svg>
